<svg width="300" height="300" viewBox="0 0 300 300" fill="none" xmlns="http://www.w3.org/2000/svg">
  <path d="M0 150C0 300 0 300 150 300C300 300 300 300 300 150C300 0 300 0 150 0C0 0 0 0 0 150ZM135.223 36.7675C136.563 37.2215 137.366 39.2022 136.161 39.2022C135.402 39.2022 135.67 41.2242 136.518 41.7194C137.188 42.132 137.277 42.9574 137.232 49.9725C137.188 55.3783 137.321 57.8955 137.679 58.1018C138.571 58.6382 139.241 60.1238 138.973 61.0316C138.839 61.5268 138.929 62.1458 139.196 62.4347C140.402 63.7964 140.536 65.8597 139.464 66.8088C138.438 67.7166 138.393 68.0468 138.348 73.4113C138.17 89.0509 138.08 88.0605 139.955 89.1334C140.804 89.6286 141.518 90.2889 141.518 90.5777C141.518 90.8666 142.098 91.238 142.857 91.403C143.571 91.5681 144.554 92.0633 144.955 92.5585C145.402 93.0536 146.295 93.7964 146.964 94.2091C147.634 94.5805 148.839 95.5708 149.598 96.3549C150.357 97.0977 152.188 98.5007 153.705 99.4085C155.313 100.44 157.009 101.967 157.946 103.205C158.795 104.402 160.134 105.887 160.982 106.547C161.786 107.208 162.589 108.116 162.723 108.528C162.857 108.941 163.929 109.766 165.089 110.303C166.339 110.88 169.821 113.686 173.75 117.318C177.411 120.66 180.804 123.466 181.384 123.59C181.92 123.714 182.679 124.415 182.991 125.076C183.304 125.777 184.063 126.52 184.643 126.768C185.223 127.015 185.714 127.469 185.714 127.717C185.714 128.006 186.652 128.666 187.857 129.243C189.196 129.862 190.223 130.729 190.714 131.596C191.116 132.338 191.786 133.287 192.188 133.7C193.259 134.814 192.5 135.805 189.509 137.166C188.17 137.827 186.696 138.735 186.25 139.23C185.848 139.725 184.777 140.385 183.929 140.674C181.295 141.623 178.348 142.985 178.214 143.274C178.125 143.48 177.679 143.604 177.188 143.604C176.741 143.604 176.071 144.14 175.67 144.801C174.866 146.286 173.348 147.318 172.054 147.318C170.625 147.318 169.018 148.226 166.964 150.165C165.938 151.114 164.286 152.228 163.259 152.641C162.232 153.054 160.714 154.085 159.911 154.869C159.152 155.695 157.857 156.644 157.143 157.015C156.384 157.387 155.804 157.84 155.804 158.006C155.804 158.212 154.33 159.078 152.5 159.904C150.446 160.853 149.018 161.843 148.705 162.421C148.214 163.411 147.857 163.535 145.089 163.576C143.884 163.618 143.527 163.824 143.393 164.443C143.08 166.176 141.875 167.909 140.491 168.735C139.688 169.188 138.661 169.931 138.214 170.385C137.768 170.839 136.875 171.334 136.161 171.458C132.946 172.118 131.786 175.089 134.018 177.029C134.554 177.483 134.777 177.854 134.554 177.854C133.884 177.854 132.411 181.197 132.946 181.527C133.17 181.651 133.527 182.558 133.705 183.508C133.929 184.869 134.286 185.365 135.268 185.777C135.982 186.066 136.652 186.644 136.696 187.098C136.786 187.552 137.545 188.377 138.393 188.913C140.223 190.028 142.411 192.875 142.411 194.072C142.411 195.268 146.161 200.138 148.214 201.582C149.196 202.242 149.955 202.985 150 203.232C150 203.439 150.982 204.594 152.143 205.791C153.348 206.988 154.554 208.432 154.911 209.01C155.223 209.587 155.67 210.041 155.893 210.041C156.071 210.041 156.563 210.743 156.92 211.609C157.366 212.641 158.438 213.714 159.955 214.746C161.607 215.818 162.321 216.602 162.321 217.221C162.277 217.923 162.589 218.129 163.705 218.212C164.777 218.294 165.491 218.748 166.384 219.945C167.054 220.812 168.304 221.843 169.152 222.297C170.045 222.71 171.696 223.906 172.902 225.021C174.107 226.094 175.223 226.96 175.357 226.96C175.491 226.96 176.964 228.198 178.571 229.766C182.768 233.686 184.063 234.636 185.893 235.213C186.786 235.461 187.5 235.915 187.5 236.245C187.5 236.534 187.991 236.905 188.616 237.029C189.241 237.194 190.045 237.73 190.446 238.308C190.848 238.886 191.429 239.34 191.696 239.34C192.411 239.34 194.33 241.321 195 242.724C195.268 243.384 195.759 243.879 196.071 243.879C196.384 243.879 197.366 244.457 198.214 245.117C199.777 246.396 200.938 247.056 203.348 248.129C204.107 248.459 205.491 249.656 206.473 250.812C207.455 251.967 208.571 252.916 208.929 252.957C209.33 252.957 210.536 253.783 211.607 254.814C212.679 255.846 214.018 256.671 214.509 256.671C215.58 256.671 216.92 257.497 219.286 259.642C220.179 260.509 221.116 261.21 221.339 261.21C221.563 261.21 222.098 261.582 222.545 262.036C222.991 262.49 223.571 262.861 223.884 262.861C224.196 262.861 224.777 263.232 225.223 263.686C225.67 264.14 226.295 264.512 226.563 264.512C226.875 264.512 227.366 264.801 227.679 265.131C227.991 265.461 228.616 265.75 229.018 265.75C229.464 265.75 230.402 266.369 231.116 267.111C231.786 267.895 233.795 269.133 235.491 269.876C237.232 270.66 238.884 271.609 239.196 272.022C239.509 272.435 240.223 272.765 240.759 272.765C242.009 272.806 245.848 273.755 246.25 274.127C246.741 274.539 250.893 274.498 252.679 274.003C253.973 273.673 254.33 273.714 254.821 274.292C255.982 275.777 245.045 277.263 241.295 276.107C237.5 274.993 235.089 273.962 234.554 273.26C234.241 272.806 233.348 272.352 232.589 272.187C231.83 272.063 230.58 271.527 229.777 270.949C228.973 270.413 227.813 269.876 227.143 269.711C226.473 269.587 224.955 268.556 223.795 267.442C222.634 266.369 221.161 265.296 220.58 265.131C220 264.966 218.973 264.264 218.348 263.563C217.723 262.902 216.384 261.995 215.357 261.582C214.375 261.169 212.277 259.807 210.804 258.569C209.286 257.29 207.634 256.094 207.143 255.846C206.652 255.598 206.25 255.144 206.25 254.856C206.25 254.567 205.759 254.113 205.134 253.865C204.509 253.618 204.018 253.205 204.018 252.999C204.018 252.792 203.527 252.503 202.902 252.38C202.277 252.215 201.473 251.678 201.071 251.1C200.67 250.523 199.955 250.069 199.509 250.069C199.018 250.069 198.661 249.904 198.661 249.697C198.661 249.491 197.902 248.955 197.009 248.542C196.071 248.129 195.045 247.304 194.732 246.685C194.42 246.025 193.929 245.53 193.661 245.53C193.17 245.53 192.366 244.911 190.714 243.343C190.313 242.971 189.777 242.641 189.554 242.641C189.33 242.641 188.259 241.816 187.232 240.825C186.205 239.794 184.509 238.473 183.482 237.895C182.5 237.318 181.518 236.534 181.384 236.204C181.25 235.873 180.58 235.337 179.866 234.966C179.152 234.636 178.571 234.182 178.571 233.934C178.571 233.315 176.696 231.953 175.893 231.912C174.777 231.912 172.321 230.303 172.321 229.601C172.321 228.941 169.464 226.135 168.795 226.135C168.036 226.135 161.607 219.945 161.607 219.161C161.607 218.212 160.982 217.758 158.571 217.056C157.5 216.768 156.429 216.149 156.205 215.736C155.982 215.323 155.536 214.993 155.223 214.993C154.732 214.993 153.259 213.838 151.25 211.816C150.848 211.403 150.402 210.578 150.223 209.959C150.045 209.381 149.42 208.473 148.839 207.937C148.259 207.442 147.768 206.781 147.768 206.492C147.768 206.204 146.696 205.172 145.357 204.182C144.018 203.191 142.813 202.118 142.679 201.788C142.545 201.458 142.009 200.591 141.518 199.931C141.027 199.23 140.446 198.322 140.223 197.827C140 197.373 139.286 196.671 138.661 196.3C138.036 195.887 137.5 195.351 137.5 195.062C137.5 194.773 136.92 193.948 136.161 193.205C135.446 192.462 134.821 191.596 134.821 191.265C134.821 190.729 133.884 190.234 132.902 190.234C131.652 190.234 131.027 192.875 130.938 198.487C130.893 201.541 130.804 206.658 130.714 209.835C130.625 213.26 130.804 217.18 131.161 219.491C131.652 222.421 131.652 223.411 131.25 223.659C130.714 223.948 131.429 227.125 132.232 227.992C132.411 228.198 132.589 229.436 132.589 230.715C132.589 232.036 132.768 233.191 132.991 233.315C133.17 233.439 133.482 234.759 133.616 236.286C133.75 237.895 134.063 239.175 134.42 239.381C135.134 239.752 135.134 242.517 134.42 243.177C133.616 243.92 131.518 242.971 131.027 241.609C130.759 240.908 130.134 239.752 129.598 238.968C129.063 238.226 128.527 236.946 128.348 236.121C128.214 235.337 127.679 234.182 127.188 233.563C125.848 231.953 124.955 226.382 124.777 219.037C124.688 215.488 124.509 212.187 124.375 211.774C124.196 211.321 124.241 210.206 124.464 209.299C124.732 208.308 124.732 206.162 124.509 204.182C123.75 197.125 124.152 189.78 125.446 188.294C126.563 186.974 126.563 184.044 125.402 183.301C124.911 183.012 124.554 182.476 124.554 182.146C124.554 181.774 124.063 181.568 123.214 181.568C122.5 181.568 121.875 181.774 121.875 182.022C121.875 182.6 119.152 184.869 118.393 184.869C116.83 184.869 114.42 186.52 114.152 187.758C113.929 188.707 113.616 188.996 112.768 188.996C112.188 188.996 111.473 189.285 111.161 189.615C110.848 189.945 110.357 190.234 110.089 190.234C109.777 190.234 108.884 190.688 108.036 191.265C107.188 191.843 106.205 192.297 105.804 192.297C105.402 192.297 104.241 193.04 103.17 193.948C102.143 194.856 100.893 195.598 100.446 195.598C99.3304 195.598 94.7321 197.909 93.3929 199.106C92.7679 199.684 92.0089 200.138 91.6518 200.138C91.3393 200.138 90.5804 200.385 90.0446 200.715C89.5089 201.045 88.0804 201.623 86.8304 201.995C85.625 202.407 84.2857 202.944 83.8839 203.274C83.5268 203.604 82.9464 203.851 82.6786 203.851C82.3661 203.851 82.1429 204.099 82.1429 204.388C82.1429 205.378 76.25 207.276 74.4643 206.823C73.9732 206.699 73.4375 206.781 73.2589 206.988C72.9911 207.359 71.2946 208.184 68.75 209.133C68.125 209.381 66.4732 209.794 65 210.083C63.5714 210.371 62.1875 210.825 61.875 211.073C60.0893 212.724 55.2232 213.92 49.9554 213.962C48.5714 213.962 47.1429 214.209 46.7411 214.498C44.7321 216.066 38.8393 214.911 39.5982 213.095C39.8661 212.435 43.0804 212.311 43.5268 212.93C43.9732 213.631 45.1786 213.384 45.4018 212.558C45.625 211.733 47.8125 210.825 51.5625 210C52.8125 209.752 54.0179 209.299 54.2411 209.051C55.3125 207.978 60.625 206.286 61.9643 206.616C62.7679 206.781 63.3482 206.534 64.5982 205.296C65.8036 204.14 66.5179 203.769 67.6786 203.769C68.4821 203.769 69.4196 203.521 69.6875 203.191C70.0446 202.779 70.6696 202.696 71.6071 202.861C72.9018 203.067 73.3036 202.82 75.8036 200.633C78.2143 198.487 78.8393 198.157 80.8036 197.909C82.3214 197.703 83.0357 197.455 83.0357 197.043C83.0357 196.465 83.4375 196.3 86.5179 195.846C87.5 195.681 88.6607 194.979 89.8661 193.824C90.8929 192.834 92.6339 191.678 93.75 191.183C97.8571 189.45 99.0179 188.996 99.4643 188.996C99.6875 188.996 100 188.624 100.134 188.171C100.268 187.675 100.759 187.345 101.295 187.345C101.83 187.345 102.232 187.098 102.232 186.768C102.232 186.437 102.589 186.272 103.259 186.396C103.884 186.52 104.554 186.314 104.866 185.942C105.223 185.571 105.938 185.282 106.518 185.282C107.143 185.282 107.589 185.034 107.589 184.704C107.589 184.374 107.946 183.838 108.393 183.549C108.795 183.26 109.509 182.517 109.955 181.857C110.402 181.238 111.027 180.743 111.339 180.743C111.652 180.743 112.188 180.454 112.5 180.124C112.813 179.794 113.304 179.505 113.616 179.505C114.286 179.505 116.964 177.276 116.964 176.74C116.964 176.327 119.152 175.378 120.179 175.378C121.384 175.378 121.161 174.017 119.688 172.49C118.884 171.623 118.17 171.21 117.723 171.376C117.232 171.541 116.875 171.252 116.563 170.385C116.339 169.725 115.938 169.188 115.714 169.188C115.134 169.188 109.821 164.113 109.821 163.576C109.821 163.287 109.33 162.792 108.705 162.421C108.08 162.05 107.589 161.389 107.589 160.977C107.589 160.564 106.83 159.739 105.804 159.12C104.732 158.459 104.018 157.717 104.018 157.221C104.018 156.107 100.313 152.558 98.4821 151.857C97.3214 151.444 96.9196 150.99 96.5179 149.629C96.1161 148.226 95.625 147.648 93.9732 146.699C92.8571 146.039 91.6518 145.089 91.2946 144.553C90.8929 144.058 89.9554 143.521 89.0625 143.356C88.1696 143.232 87.5 142.861 87.5 142.531C87.5 142.201 87.2321 141.953 86.875 141.953C86.3393 141.953 86.25 142.655 86.3393 145.461C86.5179 149.381 86.3393 149.546 83.75 148.102C82.1875 147.276 81.8304 146.41 82.0982 144.512C82.1875 144.182 81.9196 143.356 81.5625 142.655C81.2054 141.912 80.7589 140.385 80.5804 139.23C80.3125 137.414 80.0446 136.919 78.4821 135.722C77.5 134.938 75.9375 133.7 75 132.957C74.1071 132.256 73.125 131.637 72.8571 131.637C70.8482 131.637 68.3036 129.326 68.3036 127.51C68.3036 126.974 71.9643 126.231 73.3036 126.52C74.4196 126.726 74.8214 126.602 75.4464 125.86C76.7857 124.25 81.25 126.437 81.25 128.666C81.25 129.532 83.125 131.637 83.9286 131.637C84.1518 131.637 84.8214 132.091 85.3571 132.669C85.8929 133.246 86.5625 133.7 86.8304 133.7C87.6786 133.7 91.0714 135.928 91.0714 136.465C91.0714 136.754 91.3839 137.001 91.7411 137.001C92.0982 137.001 92.4107 137.166 92.4107 137.332C92.4107 137.868 94.7321 140.303 95.2679 140.303C95.8929 140.303 98.7054 142.82 101.339 145.791C102.455 146.988 103.884 148.349 104.509 148.762C105.179 149.175 106.027 150.041 106.384 150.619C106.786 151.238 107.991 152.228 109.063 152.847C110.402 153.631 110.982 154.25 110.848 154.704C110.625 155.571 112.589 158.006 114.598 159.285C115.536 159.904 116.786 161.265 117.545 162.627C118.482 164.237 119.42 165.268 120.536 165.846C121.518 166.341 122.545 167.332 122.991 168.198C124.018 170.179 125.223 169.973 125.268 167.744C125.313 166.836 125.357 166.011 125.402 165.887C125.446 165.763 125.58 163.164 125.625 160.11C125.714 157.056 125.982 152.228 126.161 149.381C126.339 146.534 126.518 143.645 126.518 142.902C126.518 142.16 126.741 141.458 127.098 141.376C127.857 141.087 127.857 139.601 127.143 139.354C126.741 139.188 126.741 139.023 127.009 138.776C127.277 138.569 127.5 134.897 127.589 129.78C127.634 124.993 127.902 120.124 128.125 118.886C128.393 117.648 128.571 115.832 128.571 114.883C128.571 113.893 128.75 113.026 128.973 112.902C129.196 112.779 129.375 110.798 129.375 108.528C129.42 106.259 129.732 102.751 130.089 100.77C130.714 97.2627 131.027 93.5076 130.938 90.2063C130.893 88.3906 130.089 87.6066 128.036 87.1939C127.366 87.0702 126.696 86.6575 126.563 86.2448C126.429 85.8322 125.402 84.7593 124.33 83.8514C123.214 82.9023 122.321 81.8707 122.321 81.5406C122.321 81.1692 122.054 80.8803 121.696 80.8803C121.339 80.8803 120.938 80.3439 120.759 79.7249C120.491 78.4869 117.768 75.5158 116.92 75.5158C116.295 75.5158 113.839 72.9986 113.839 72.3384C113.839 72.0495 113.438 71.5956 112.946 71.3067C112.455 71.0179 112.054 70.564 112.054 70.3164C112.054 69.5323 108.304 66.2311 105.357 64.4979C100.938 61.8569 100.58 61.6094 100.268 60.4952C99.6429 58.1018 102.188 56.2861 104.152 57.7717C104.464 57.978 105.402 58.6795 106.25 59.3397C107.098 59.9587 108.973 60.9904 110.402 61.6094C111.786 62.2283 112.946 62.9711 112.946 63.3012C112.946 63.6314 113.125 63.9615 113.348 64.044C114.018 64.2503 116.964 68.0468 116.964 68.707C116.964 69.0371 117.277 69.326 117.634 69.326C117.991 69.326 118.304 69.4911 118.304 69.7387C118.304 69.945 118.571 70.1513 118.884 70.1513C119.955 70.1513 124.554 75.4746 124.554 76.7125C124.554 77.0839 125.268 77.7854 126.116 78.3219C127.009 78.8171 128.036 79.89 128.438 80.674C129.241 82.2008 130.938 82.696 131.429 81.4993C131.563 81.1692 131.964 80.8803 132.321 80.8803C132.857 80.8803 132.991 80.1788 132.946 77.0426C132.902 74.9794 133.036 69.2435 133.259 64.3741C133.795 49.8487 133.795 45.6809 133.17 45.5158C132.857 45.392 132.5 44.6905 132.321 43.9065C132.188 43.1224 131.83 42.5034 131.607 42.5034C131.295 42.5034 131.295 42.3384 131.607 41.967C131.83 41.7194 132.188 40.6465 132.366 39.6149C132.946 35.9835 132.902 36.0248 135.223 36.7675ZM37.2321 214.993C36.1607 216.107 34.8214 216.272 34.8214 215.282C34.8214 214.415 36.7857 213.054 37.5893 213.425C38.3036 213.755 38.2589 213.879 37.2321 214.993Z" fill="#DDCCAA"/>
  <path d="M137.321 96.85C137.232 97.2627 136.964 100.151 136.83 103.287C136.652 106.382 136.339 109.065 136.116 109.188C135.893 109.312 135.714 111.375 135.714 113.769C135.714 117.318 135.58 118.308 134.955 118.927C134.553 119.34 134.196 120.454 134.152 121.32C134.152 122.228 134.018 123.054 133.839 123.177C133.527 123.466 133.795 130.729 134.152 131.224C134.286 131.431 134.107 132.049 133.705 132.586C133.036 133.535 133.08 136.836 133.795 138.858C134.152 139.849 133.973 141.169 133.437 141.788C132.812 142.49 132.545 148.927 133.08 149.835C133.393 150.413 133.348 151.651 132.857 154.127C132.5 156.066 132.321 158.005 132.455 158.459C132.589 158.955 132.455 159.78 132.143 160.358C131.696 161.1 131.652 161.678 132.009 162.792C132.277 163.576 132.411 164.608 132.277 165.062C131.786 166.836 134.866 166.094 136.473 164.03C137.5 162.792 138.303 162.173 139.152 162.091C139.955 162.008 140.58 161.596 140.848 161.018C141.071 160.523 141.696 159.986 142.187 159.862C142.634 159.697 143.616 159.078 144.286 158.459C144.955 157.84 146.071 157.221 146.786 157.098C147.5 156.974 148.259 156.479 148.527 155.901C148.973 154.952 152.187 153.095 153.348 153.095C153.705 153.095 154.509 152.352 155.223 151.444C155.893 150.536 156.696 149.794 157.009 149.794C157.321 149.794 158.214 149.257 159.018 148.638C159.821 147.978 161.518 146.988 162.812 146.41C164.062 145.832 166.205 144.512 167.5 143.48C168.795 142.448 170.625 141.334 171.562 141.004C172.455 140.633 173.214 140.138 173.214 139.931C173.214 139.684 173.571 139.477 174.018 139.477C174.42 139.477 175.268 139.106 175.893 138.652C176.518 138.198 177.455 137.827 177.991 137.827C178.527 137.827 179.241 137.455 179.553 137.043C179.866 136.63 180.982 135.846 182.053 135.351C184.062 134.36 184.286 133.741 183.259 131.884C182.902 131.265 182.589 130.523 182.589 130.234C182.589 129.986 181.83 129.202 180.937 128.542C180.045 127.84 178.214 126.272 176.83 125.034C175.446 123.755 173.661 122.476 172.902 122.187C172.098 121.898 171.428 121.403 171.428 121.114C171.428 120.825 170.714 120.165 169.866 119.629C169.018 119.092 168.303 118.391 168.303 118.102C168.303 117.854 167.946 117.607 167.5 117.607C166.607 117.607 165.178 116.41 165.178 115.667C165.178 115.419 164.777 115.131 164.286 115.007C163.795 114.883 163.393 114.512 163.393 114.14C163.393 113.026 161.473 110.633 160.178 110.138C159.464 109.89 158.928 109.519 158.928 109.312C158.928 109.147 158.08 108.858 157.009 108.734C155.491 108.528 154.777 108.074 153.125 106.382C152.009 105.227 150.58 103.824 149.911 103.205C149.241 102.627 148.527 101.637 148.259 100.977C147.991 100.358 147.545 99.8624 147.232 99.8624C146.92 99.8624 146.428 99.4498 146.205 98.9133C145.67 97.8404 144.062 97.6753 143.839 98.6657C143.75 99.0371 144.018 99.6561 144.42 99.9862C144.777 100.358 144.911 100.729 144.687 100.853C144.286 101.1 142.411 99.7799 142.411 99.2022C142.366 97.7166 137.723 95.6121 137.321 96.85Z" fill="#DDCCAA"/>
  <path d="M133.393 35.7772C132.545 35.9835 132.366 36.3962 131.875 39.2022C131.741 40.1926 131.339 41.348 131.071 41.7607C130.714 42.3384 130.714 42.6273 131.071 42.8336C131.339 42.9986 131.696 43.6589 131.875 44.3604C132.053 45.0206 132.455 45.7222 132.723 45.8872C133.303 46.2173 133.303 50.6328 132.768 63.9615C132.589 68.8308 132.411 74.5667 132.455 76.63C132.455 79.6424 132.321 80.4677 131.83 80.4677C131.518 80.4677 131.116 80.7565 130.982 81.0867C130.536 82.1183 129.687 81.7882 128.884 80.2614C128.482 79.4773 127.455 78.4044 126.562 77.9092C125.714 77.3728 125 76.6713 125 76.2999C125 75.0619 120.402 69.7387 119.33 69.7387C119.018 69.7387 118.75 69.5323 118.75 69.326C118.75 69.0784 118.437 68.9134 118.08 68.9134C117.723 68.9134 117.411 68.6245 117.411 68.2944C117.411 67.6341 114.464 63.8377 113.795 63.6314C113.571 63.5488 113.393 63.2187 113.393 62.8886C113.393 62.5585 112.232 61.8157 110.848 61.1967C109.42 60.5777 107.545 59.5461 106.696 58.9271C105.848 58.2669 104.866 57.5654 104.553 57.3178C102.411 55.7084 99.7767 57.0289 99.7767 59.6699C99.7767 61.8157 100.268 62.3109 104.687 64.7868C107.366 66.2724 111.607 69.9037 111.607 70.729C111.607 70.9766 112.009 71.4306 112.5 71.7194C112.991 72.0083 113.393 72.4622 113.393 72.751C113.393 73.4113 115.848 75.9285 116.473 75.9285C117.321 75.9285 120.045 78.8996 120.312 80.1376C120.491 80.7565 120.893 81.293 121.25 81.293C121.607 81.293 121.875 81.5819 121.875 81.9532C121.875 82.2834 122.768 83.315 123.884 84.2641C124.955 85.172 125.982 86.2449 126.116 86.6575C126.25 87.0702 126.92 87.4828 127.589 87.6066C129.911 88.0605 130.536 88.8033 130.446 91.238C130.312 95.4058 129.955 98.9134 129.509 101.348C129.241 102.669 128.973 105.722 128.884 108.074C128.795 110.839 128.571 112.448 128.214 112.572C127.902 112.655 127.812 113.191 127.991 113.934C128.125 114.594 127.991 116.575 127.723 118.308C127.411 120.083 127.143 125.241 127.098 129.78C127.009 136.547 126.875 138.116 126.339 138.528C125.759 138.982 125.759 139.147 126.562 139.725C127.411 140.303 127.411 140.385 126.696 140.88C126.25 141.21 125.937 141.912 125.982 142.613C126.071 144.058 125.491 153.425 125.178 155.777C124.866 158.212 124.866 164.113 125.178 164.608C125.357 164.814 125.223 165.144 124.955 165.268C124.687 165.433 124.598 166.176 124.777 167.125C125.178 169.23 124.375 169.601 123.393 167.744C122.991 166.919 121.964 165.928 120.982 165.433C119.866 164.856 118.928 163.824 117.991 162.215C117.232 160.853 115.982 159.491 115.045 158.872C112.991 157.593 111.205 155.323 111.473 154.415C111.607 153.92 111.027 153.343 109.598 152.517C108.482 151.857 107.232 150.825 106.83 150.206C106.473 149.629 105.625 148.762 104.955 148.349C104.33 147.937 102.902 146.575 101.786 145.378C99.1517 142.407 96.3392 139.89 95.7142 139.89C95.1785 139.89 92.857 137.455 92.857 136.919C92.857 136.754 92.5445 136.589 92.1874 136.589C91.8303 136.589 91.5178 136.341 91.5178 136.052C91.5178 135.516 88.1249 133.287 87.2767 133.287C87.0088 133.287 86.3392 132.834 85.8035 132.256C85.2678 131.678 84.6428 131.224 84.3749 131.224C83.5713 131.224 82.0981 129.574 81.5624 128.006C80.5803 125.282 76.116 123.508 74.9999 125.447C74.6428 126.066 74.241 126.19 73.2142 125.984C71.2945 125.653 67.857 126.602 67.857 127.51C67.857 129.697 70.1785 132.05 72.366 132.05C72.8124 132.05 75.1785 133.783 78.3928 136.382C79.5981 137.414 79.9106 137.992 80.0445 139.519C80.1338 140.55 80.5356 142.036 80.982 142.779C81.4731 143.728 81.5624 144.305 81.2053 144.677C80.8928 145.007 80.8928 145.254 81.2499 145.461C81.5178 145.626 81.6963 146.039 81.6517 146.41C81.5178 147.318 82.1428 148.597 82.5892 148.349C82.7678 148.226 83.4374 148.514 84.0624 148.968C85.9374 150.33 87.5892 149.505 87.0088 147.524C85.8035 143.563 88.2142 142.448 91.3838 145.461C92.232 146.245 93.482 147.194 94.241 147.524C95.1785 148.019 95.6695 148.638 96.0713 149.959C96.4731 151.403 96.8749 151.857 98.0356 152.27C99.866 152.971 103.571 156.52 103.571 157.634C103.571 158.129 104.286 158.872 105.357 159.532C106.384 160.151 107.143 160.977 107.143 161.389C107.143 161.802 107.634 162.462 108.259 162.834C108.884 163.205 109.375 163.7 109.375 163.989C109.375 164.525 114.687 169.601 115.223 169.601C115.446 169.601 115.937 170.261 116.295 171.087C116.83 172.283 117.098 172.49 117.589 172.118C118.214 171.623 119.464 172.49 118.884 173.026C118.75 173.191 118.928 173.315 119.286 173.315C119.866 173.315 120.536 174.099 120.536 174.801C120.536 174.883 120.045 174.966 119.464 174.966C118.839 174.966 118.214 175.172 118.08 175.378C117.857 175.708 117.589 175.708 117.232 175.42C116.518 174.883 116.027 175.254 116.384 176.039C116.652 176.74 113.928 179.216 113.303 178.845C113.08 178.721 112.589 178.968 112.232 179.464C111.875 179.959 111.25 180.33 110.937 180.33C110.58 180.33 109.955 180.825 109.509 181.444C109.062 182.105 108.348 182.847 107.946 183.136C107.5 183.425 107.143 183.961 107.143 184.292C107.143 184.622 106.741 184.869 106.161 184.869C105.625 184.869 104.821 185.158 104.375 185.53C103.75 186.107 103.482 186.107 102.902 185.695C102.366 185.282 102.187 185.323 101.92 185.942C101.696 186.396 101.25 186.726 100.893 186.726C100.536 186.726 100.045 187.139 99.7767 187.634C99.5535 188.171 99.1517 188.583 98.9731 188.583C98.5713 188.583 97.0981 189.161 93.3035 190.812C92.1874 191.265 91.1606 191.637 90.982 191.554C90.7588 191.513 90.6249 191.637 90.6249 191.884C90.6249 192.256 87.991 194.938 87.4999 195.021C87.366 195.021 86.9642 195.186 86.607 195.309C86.2499 195.433 85.1338 195.64 84.1517 195.722C82.8124 195.805 82.366 196.052 82.4106 196.547C82.4553 197.084 81.9642 197.29 80.3124 197.497C78.4374 197.744 77.7231 198.116 75.4017 200.179C73.0356 202.283 72.4999 202.531 71.3838 202.325C70.6249 202.201 69.8213 202.325 69.4195 202.613C69.0178 202.902 68.0356 203.191 67.1874 203.274C66.116 203.356 65.2231 203.851 64.1963 204.842C63.0802 205.915 62.4552 206.245 61.741 206.08C60.4463 205.75 54.8213 207.565 53.7945 208.638C53.5713 208.927 52.7677 209.257 52.0088 209.381C48.4374 210.083 44.6427 211.486 44.8213 211.981C45.0892 212.6 44.3749 213.095 43.9731 212.517C43.482 211.816 39.4195 212.022 39.107 212.765C38.8392 213.384 38.7499 213.384 37.7231 212.765C36.3838 211.939 36.1606 211.939 36.1606 212.724C36.1606 213.054 35.7588 213.508 35.2677 213.755C34.0624 214.374 34.107 216.107 35.3124 216.437C36.0713 216.685 36.607 216.437 37.5892 215.447C38.8838 214.127 38.8838 214.127 40.2677 215.199C41.6517 216.272 42.0535 216.396 42.5892 215.942C42.7677 215.777 43.6606 215.612 44.6427 215.612C45.6695 215.571 46.7856 215.241 47.3213 214.787C47.9463 214.292 48.3927 214.168 48.7052 214.457C48.9731 214.704 49.9106 214.746 51.0267 214.58C52.0535 214.415 54.4195 214.044 56.2499 213.755C59.3302 213.301 61.0713 212.682 62.3213 211.486C62.6338 211.238 64.0177 210.784 65.4463 210.495C66.9195 210.206 68.482 209.835 68.9731 209.67C72.0088 208.514 73.6606 207.73 73.6606 207.442C73.6606 207.235 74.0178 207.194 74.5088 207.359C76.1606 207.813 82.5892 205.832 82.5892 204.801C82.5892 204.512 82.8124 204.264 83.1249 204.264C83.3928 204.264 83.9731 204.017 84.3303 203.686C84.732 203.356 86.0713 202.82 87.2767 202.407C88.5267 202.036 89.9553 201.458 90.491 201.128C91.0267 200.798 91.7856 200.55 92.0981 200.55C92.4553 200.55 93.2142 200.096 93.8392 199.519C95.1785 198.322 99.7767 196.011 100.893 196.011C101.339 196.011 102.589 195.268 103.616 194.36C104.687 193.453 105.848 192.71 106.25 192.71C106.652 192.71 107.634 192.256 108.482 191.678C109.33 191.1 110.223 190.647 110.536 190.647C110.803 190.647 111.295 190.358 111.607 190.028C111.92 189.697 112.634 189.409 113.214 189.409C114.062 189.409 114.375 189.12 114.598 188.171C114.866 186.933 117.277 185.282 118.839 185.282C119.598 185.282 122.321 183.012 122.321 182.435C122.321 182.187 122.723 181.981 123.214 181.981C123.705 181.981 124.107 182.228 124.107 182.558C124.107 182.889 124.464 183.425 124.911 183.714C125.982 184.415 125.893 187.015 124.777 188.171C123.705 189.243 123.259 197.001 123.884 203.645C124.062 205.213 124.107 207.194 124.062 207.978C124.018 208.762 124.018 210.702 124.062 212.311C124.107 213.879 124.152 217.51 124.152 220.358C124.152 223.164 124.33 225.763 124.553 226.135C124.732 226.465 125 227.785 125.134 229.023C125.402 231.582 126.071 233.439 127.098 234.47C127.455 234.883 127.678 235.461 127.545 235.832C127.366 236.162 127.455 236.451 127.723 236.451C127.991 236.451 128.125 236.699 127.991 236.988C127.857 237.276 128.303 238.267 129.018 239.175C129.687 240.083 130.357 241.362 130.536 241.981C130.937 243.425 133.482 244.539 134.732 243.838C135.759 243.219 135.982 238.927 135 238.927C134.643 238.927 134.375 238.597 134.33 238.184C134.152 235.172 133.839 233.356 133.482 232.944C133.259 232.696 133.08 231.623 133.125 230.55C133.17 229.519 132.991 228.239 132.723 227.703C131.786 225.928 131.295 224.072 131.741 224.072C132.232 224.072 132.053 219.615 131.518 218.79C131.339 218.501 131.205 216.933 131.25 215.282C131.295 213.673 131.295 212.105 131.295 211.898C131.295 211.651 131.295 209.917 131.295 207.978C131.339 206.039 131.384 201.871 131.428 198.693C131.473 194.36 131.652 192.669 132.143 191.884C132.5 191.307 132.812 190.812 132.857 190.729C132.902 190.688 133.259 190.729 133.661 190.894C134.062 191.018 134.241 191.307 134.107 191.513C133.973 191.719 134.598 192.545 135.446 193.37C136.339 194.237 137.053 195.144 137.053 195.433C137.053 195.722 137.678 196.341 138.437 196.836C139.152 197.332 139.687 197.868 139.553 197.992C139.375 198.116 139.598 198.569 140.045 198.982C140.803 199.766 141.786 201.21 142.232 202.201C142.366 202.531 143.571 203.604 144.911 204.594C146.25 205.585 147.321 206.616 147.321 206.905C147.321 207.194 147.812 207.854 148.393 208.349C148.973 208.886 149.598 209.794 149.777 210.371C149.955 210.99 150.402 211.816 150.803 212.228C152.812 214.25 154.286 215.406 154.777 215.406C155.089 215.406 155.536 215.736 155.759 216.149C155.982 216.561 157.053 217.18 158.125 217.469C160.58 218.171 161.384 218.748 160.67 219.161C160.134 219.45 167.5 226.547 168.348 226.547C168.884 226.547 170.803 228.322 170.67 228.693C170.58 228.9 170.848 229.023 171.205 229.023C171.562 229.023 171.875 229.395 171.875 229.849C171.875 230.715 174.196 232.325 175.446 232.325C176.25 232.366 178.125 233.728 178.125 234.347C178.125 234.594 178.705 235.048 179.42 235.378C180.134 235.75 180.803 236.286 180.937 236.616C181.071 236.946 182.053 237.73 183.036 238.308C184.062 238.886 185.759 240.206 186.786 241.238C187.812 242.228 188.884 243.054 189.107 243.054C189.33 243.054 189.866 243.384 190.268 243.755C191.92 245.323 192.723 245.942 193.214 245.942C193.482 245.942 193.973 246.437 194.286 247.098C194.598 247.717 195.625 248.542 196.562 248.955C197.455 249.367 198.214 249.904 198.214 250.11C198.214 250.316 198.571 250.481 199.062 250.481C199.509 250.481 200.223 250.935 200.625 251.513C201.027 252.091 201.83 252.627 202.455 252.792C203.08 252.916 203.571 253.205 203.571 253.411C203.571 253.618 204.062 254.03 204.687 254.278C205.312 254.525 205.803 254.979 205.803 255.268C205.803 255.557 206.205 256.011 206.696 256.259C207.187 256.506 208.839 257.703 210.357 258.982C211.83 260.22 213.928 261.582 214.911 261.995C215.937 262.407 217.277 263.315 217.902 263.975C218.527 264.677 219.553 265.378 220.134 265.543C220.714 265.708 222.187 266.781 223.348 267.854C224.509 268.968 226.027 270 226.696 270.124C227.366 270.289 228.527 270.825 229.33 271.362C230.134 271.939 231.384 272.476 232.143 272.6C232.902 272.765 233.795 273.219 234.107 273.673C234.777 274.58 238.348 275.942 242.009 276.685C245.759 277.469 255.803 276.272 255.803 275.034C255.803 273.59 254.643 273.054 252.545 273.508C250.045 274.127 247.009 274.127 246.652 273.59C246.518 273.343 245.893 273.177 245.268 273.177C244.687 273.177 244.196 273.054 244.196 272.847C244.196 272.682 243.348 272.517 242.277 272.435C241.161 272.393 240.134 272.063 239.732 271.609C239.375 271.197 237.678 270.248 235.937 269.464C234.241 268.721 232.232 267.483 231.562 266.699C230.848 265.956 229.911 265.337 229.464 265.337C229.062 265.337 228.437 265.048 228.125 264.718C227.812 264.388 227.321 264.099 227.009 264.099C226.741 264.099 226.116 263.728 225.67 263.274C225.223 262.82 224.643 262.448 224.33 262.448C224.018 262.448 223.437 262.077 222.991 261.623C222.545 261.169 222.009 260.798 221.786 260.798C221.562 260.798 220.625 260.096 219.732 259.23C217.366 257.084 216.027 256.259 214.955 256.259C214.464 256.259 213.125 255.433 212.053 254.402C210.982 253.37 209.777 252.545 209.375 252.545C209.018 252.503 207.902 251.554 206.92 250.399C205.937 249.243 204.553 248.047 203.795 247.717C201.384 246.644 200.223 245.983 198.661 244.704C197.812 244.044 196.83 243.466 196.518 243.466C196.205 243.466 195.714 242.971 195.446 242.352C194.777 240.908 192.857 238.927 192.143 238.927C191.875 238.927 191.295 238.473 190.893 237.895C190.491 237.318 189.687 236.781 189.062 236.616C188.437 236.492 187.946 236.121 187.946 235.832C187.946 235.502 187.232 235.048 186.339 234.801C184.509 234.223 183.214 233.274 179.018 229.354C177.411 227.785 175.937 226.547 175.759 226.547C175.58 226.547 174.687 225.846 173.75 224.938C172.857 224.072 171.205 222.792 170.089 222.173C168.973 221.513 167.857 220.688 167.589 220.358C165.759 218.129 165.178 217.717 164.018 217.675C162.991 217.675 162.768 217.51 162.857 216.85C162.902 216.272 162.232 215.571 160.491 214.415C158.884 213.301 157.857 212.228 157.366 211.197C157.009 210.33 156.518 209.629 156.339 209.629C156.116 209.629 155.67 209.175 155.357 208.597C155 208.019 153.795 206.575 152.589 205.378C151.428 204.182 150.446 203.026 150.446 202.82C150.402 202.572 149.643 201.829 148.661 201.169C146.607 199.725 142.857 194.856 142.857 193.659C142.857 192.462 140.67 189.615 138.839 188.501C137.991 187.964 137.232 187.139 137.143 186.685C137.098 186.231 136.428 185.653 135.714 185.323C134.955 185.034 134.509 184.622 134.643 184.415C134.777 184.168 134.687 183.755 134.375 183.466C134.107 183.136 134.018 182.393 134.196 181.816C134.42 180.949 134.33 180.784 133.795 180.99C133.214 181.197 133.214 181.032 133.839 179.752C134.241 178.927 134.732 178.267 134.911 178.267C135.491 178.267 135.312 177.111 134.643 176.74C132.366 175.461 133.571 172.49 136.652 171.871C137.321 171.706 138.125 171.334 138.437 171.004C138.75 170.633 139.866 169.807 140.937 169.147C142.009 168.446 142.857 167.703 142.857 167.497C142.857 167.249 143.259 166.506 143.795 165.846C144.286 165.186 144.464 164.649 144.196 164.649C143.928 164.649 143.795 164.484 143.928 164.278C144.107 164.072 144.732 164.03 145.402 164.195C146.83 164.567 148.928 163.7 149.33 162.627C149.464 162.215 151.071 161.224 152.902 160.358C154.732 159.491 156.25 158.624 156.25 158.418C156.25 158.253 156.83 157.799 157.589 157.428C158.303 157.056 159.598 156.107 160.357 155.282C161.161 154.498 162.678 153.466 163.705 153.054C164.732 152.641 166.384 151.527 167.411 150.578C169.464 148.638 171.071 147.73 172.5 147.73C173.795 147.73 175.312 146.699 176.116 145.213C176.518 144.553 177.187 144.017 177.634 144.017C178.125 144.017 178.571 143.893 178.661 143.686C178.795 143.398 181.696 142.036 184.375 141.087C185.223 140.798 186.384 140.014 186.964 139.395C187.545 138.776 188.125 138.281 188.303 138.322C190.402 138.9 194.018 134.691 192.634 133.287C192.232 132.875 191.562 131.926 191.161 131.183C190.67 130.316 189.643 129.45 188.303 128.831C187.098 128.253 186.161 127.593 186.161 127.304C186.161 127.056 185.67 126.602 185.089 126.355C184.509 126.107 183.75 125.365 183.437 124.663C183.125 124.003 182.366 123.301 181.83 123.177C181.25 123.054 177.857 120.248 174.196 116.905C170.268 113.274 166.786 110.468 165.536 109.89C164.375 109.354 163.303 108.528 163.17 108.116C163.036 107.703 162.232 106.795 161.428 106.135C160.58 105.475 159.241 103.989 158.393 102.792C157.455 101.554 155.759 100.028 154.152 98.9959C152.634 98.088 150.803 96.685 150.045 95.9422C149.286 95.1582 148.08 94.1678 147.411 93.7964C146.741 93.3838 145.848 92.641 145.402 92.1458C145 91.6506 144.018 91.1554 143.303 90.9904C142.545 90.8253 141.964 90.4539 141.964 90.1651C141.964 89.8762 141.25 89.216 140.402 88.7208C138.705 87.7717 138.571 87.0702 138.795 81.0867C138.795 79.9312 138.884 76.5475 138.884 73.5351C138.973 68.3356 139.018 68.0468 140.045 67.0977C141.161 66.066 140.937 63.5076 139.687 62.0633C139.464 61.8157 139.42 61.2792 139.553 60.9079C139.866 60.1238 138.973 58.2669 137.946 57.5241C137.411 57.1114 137.411 56.9051 137.902 56.4099C138.214 56.0385 138.348 55.5433 138.214 55.337C137.411 54.1403 137.455 48.7758 138.259 48.5282C139.018 48.2394 139.018 48.1981 138.259 47.7854C137.545 47.4553 137.455 47.0427 137.768 44.6905C138.036 42.2559 137.991 41.967 137.098 41.4306C136.027 40.729 135.848 39.6149 136.83 39.6149C138.214 39.6149 136.696 36.2311 135.268 36.1073C135.134 36.1073 134.866 35.9835 134.598 35.8597C134.375 35.7359 133.795 35.6947 133.393 35.7772ZM140.312 98.0055C141.295 98.7483 141.92 99.6149 141.741 99.8212C141.607 100.069 141.696 100.275 141.964 100.275C142.232 100.275 142.768 100.564 143.125 100.894C143.527 101.224 144.107 101.513 144.464 101.513C144.821 101.513 145.223 101.224 145.357 100.894C145.803 99.8625 147.321 100.151 147.812 101.389C148.08 102.05 148.795 103.04 149.464 103.618C150.134 104.237 151.562 105.64 152.678 106.795C154.33 108.487 155.045 108.941 156.562 109.147C157.634 109.271 158.482 109.56 158.482 109.725C158.482 109.931 159.018 110.303 159.732 110.55C161.027 111.045 162.946 113.439 162.946 114.553C162.946 114.924 163.348 115.296 163.839 115.42C164.33 115.543 164.732 115.832 164.732 116.08C164.732 116.823 166.161 118.019 167.053 118.019C167.5 118.019 167.857 118.267 167.857 118.514C167.857 118.803 168.571 119.505 169.42 120.041C170.268 120.578 170.982 121.238 170.982 121.527C170.982 121.816 171.652 122.311 172.455 122.6C173.214 122.889 175 124.168 176.384 125.447C177.768 126.685 179.598 128.253 180.491 128.955C181.384 129.615 182.053 130.399 181.92 130.688C181.83 130.935 182.053 131.389 182.411 131.678C182.768 131.967 182.991 132.421 182.857 132.751C182.723 133.04 182.812 133.287 183.036 133.287C184.062 133.287 183.348 134.113 181.607 134.938C180.536 135.433 179.42 136.217 179.107 136.63C178.795 137.043 178.08 137.414 177.545 137.414C177.009 137.414 176.071 137.785 175.446 138.239C174.821 138.693 173.973 139.065 173.571 139.065C173.125 139.065 172.768 139.271 172.768 139.519C172.768 139.725 172.009 140.22 171.116 140.591C170.178 140.922 168.348 142.036 167.053 143.067C165.759 144.099 163.616 145.42 162.366 145.997C161.071 146.575 159.375 147.565 158.571 148.226C157.768 148.845 156.875 149.381 156.562 149.381C156.25 149.381 155.446 150.124 154.777 151.032C154.062 151.939 153.259 152.682 152.902 152.682C151.741 152.682 148.527 154.539 148.08 155.488C147.812 156.066 147.053 156.561 146.339 156.685C145.625 156.809 144.509 157.428 143.839 158.047C143.17 158.666 142.187 159.285 141.741 159.45C141.25 159.574 140.625 160.11 140.402 160.605C140.089 161.265 139.598 161.513 138.928 161.472C138.214 161.389 137.5 161.884 136.295 163.411C134.643 165.351 132.232 166.424 132.857 164.856C132.991 164.525 132.902 163.618 132.589 162.834C132.187 161.637 132.232 161.224 132.812 160.399C133.259 159.739 133.393 159.12 133.125 158.501C132.902 157.964 133.036 156.19 133.393 154.209C133.839 151.816 133.884 150.454 133.571 149.587C133.036 148.102 133.303 142.861 133.973 142.118C134.553 141.458 134.598 139.354 134.018 137.084C133.75 136.011 133.75 135.227 134.018 135.103C134.241 134.979 134.241 134.649 133.973 134.36C133.661 133.989 133.705 133.576 134.196 132.957C134.687 132.256 134.777 131.596 134.42 129.697C134.196 128.294 134.196 126.933 134.42 126.355C134.687 125.777 134.643 125.076 134.375 124.622C134.062 124.085 134.107 123.755 134.598 123.384C135.089 123.012 135.134 122.682 134.821 122.146C134.33 121.321 134.598 120.248 135.58 119.175C136.027 118.68 136.205 117.318 136.25 114.223C136.25 111.912 136.428 109.766 136.607 109.56C136.92 109.188 137.678 101.018 137.589 99.0372C137.455 96.3962 138.08 96.1486 140.312 98.0055Z" fill="#605555"/>
  <path d="M133.393 35.7772C132.545 35.9835 132.366 36.3962 131.875 39.2022C131.741 40.1926 131.339 41.348 131.071 41.7607C130.714 42.3384 130.714 42.6273 131.071 42.8336C131.339 42.9986 131.696 43.6589 131.875 44.3604C132.053 45.0206 132.455 45.7222 132.723 45.8872C133.303 46.2173 133.303 50.6328 132.768 63.9615C132.589 68.8308 132.411 74.5667 132.455 76.63C132.455 79.6424 132.321 80.4677 131.83 80.4677C131.518 80.4677 131.116 80.7565 130.982 81.0867C130.536 82.1183 129.687 81.7882 128.884 80.2614C128.482 79.4773 127.455 78.4044 126.562 77.9092C125.714 77.3728 125 76.6713 125 76.2999C125 75.0619 120.402 69.7387 119.33 69.7387C119.018 69.7387 118.75 69.5323 118.75 69.326C118.75 69.0784 118.437 68.9134 118.08 68.9134C117.723 68.9134 117.411 68.6245 117.411 68.2944C117.411 67.6341 114.464 63.8377 113.795 63.6314C113.571 63.5488 113.393 63.2187 113.393 62.8886C113.393 62.5585 112.232 61.8157 110.848 61.1967C109.42 60.5777 107.545 59.5461 106.696 58.9271C105.848 58.2669 104.866 57.5654 104.553 57.3178C102.411 55.7084 99.7767 57.0289 99.7767 59.6699C99.7767 61.8157 100.268 62.3109 104.687 64.7868C107.366 66.2724 111.607 69.9037 111.607 70.729C111.607 70.9766 112.009 71.4306 112.5 71.7194C112.991 72.0083 113.393 72.4622 113.393 72.751C113.393 73.4113 115.848 75.9285 116.473 75.9285C117.321 75.9285 120.045 78.8996 120.312 80.1376C120.491 80.7565 120.893 81.293 121.25 81.293C121.607 81.293 121.875 81.5819 121.875 81.9532C121.875 82.2834 122.768 83.315 123.884 84.2641C124.955 85.172 125.982 86.2449 126.116 86.6575C126.25 87.0702 126.92 87.4828 127.589 87.6066C129.911 88.0605 130.536 88.8033 130.446 91.238C130.312 95.4058 129.955 98.9134 129.509 101.348C129.241 102.669 128.973 105.722 128.884 108.074C128.795 110.839 128.571 112.448 128.214 112.572C127.902 112.655 127.812 113.191 127.991 113.934C128.125 114.594 127.991 116.575 127.723 118.308C127.411 120.083 127.143 125.241 127.098 129.78C127.009 136.547 126.875 138.116 126.339 138.528C125.759 138.982 125.759 139.147 126.562 139.725C127.411 140.303 127.411 140.385 126.696 140.88C126.25 141.21 125.937 141.912 125.982 142.613C126.071 144.058 125.491 153.425 125.178 155.777C124.866 158.212 124.866 164.113 125.178 164.608C125.357 164.814 125.223 165.144 124.955 165.268C124.687 165.433 124.598 166.176 124.777 167.125C125.178 169.23 124.375 169.601 123.393 167.744C122.991 166.919 121.964 165.928 120.982 165.433C119.866 164.856 118.928 163.824 117.991 162.215C117.232 160.853 115.982 159.491 115.045 158.872C112.991 157.593 111.205 155.323 111.473 154.415C111.607 153.92 111.027 153.343 109.598 152.517C108.482 151.857 107.232 150.825 106.83 150.206C106.473 149.629 105.625 148.762 104.955 148.349C104.33 147.937 102.902 146.575 101.786 145.378C99.1517 142.407 96.3392 139.89 95.7142 139.89C95.1785 139.89 92.857 137.455 92.857 136.919C92.857 136.754 92.5445 136.589 92.1874 136.589C91.8303 136.589 91.5178 136.341 91.5178 136.052C91.5178 135.516 88.1249 133.287 87.2767 133.287C87.0088 133.287 86.3392 132.834 85.8035 132.256C85.2678 131.678 84.6428 131.224 84.3749 131.224C83.5713 131.224 82.0981 129.574 81.5624 128.006C80.5803 125.282 76.116 123.508 74.9999 125.447C74.6428 126.066 74.241 126.19 73.2142 125.984C71.2945 125.653 67.857 126.602 67.857 127.51C67.857 129.697 70.1785 132.05 72.366 132.05C72.8124 132.05 75.1785 133.783 78.3928 136.382C79.5981 137.414 79.9106 137.992 80.0445 139.519C80.1338 140.55 80.5356 142.036 80.982 142.779C81.4731 143.728 81.5624 144.305 81.2053 144.677C80.8928 145.007 80.8928 145.254 81.2499 145.461C81.5178 145.626 81.6963 146.039 81.6517 146.41C81.5178 147.318 82.1428 148.597 82.5892 148.349C82.7678 148.226 83.4374 148.514 84.0624 148.968C85.9374 150.33 87.5892 149.505 87.0088 147.524C85.8035 143.563 88.2142 142.448 91.3838 145.461C92.232 146.245 93.482 147.194 94.241 147.524C95.1785 148.019 95.6695 148.638 96.0713 149.959C96.4731 151.403 96.8749 151.857 98.0356 152.27C99.866 152.971 103.571 156.52 103.571 157.634C103.571 158.129 104.286 158.872 105.357 159.532C106.384 160.151 107.143 160.977 107.143 161.389C107.143 161.802 107.634 162.462 108.259 162.834C108.884 163.205 109.375 163.7 109.375 163.989C109.375 164.525 114.687 169.601 115.223 169.601C115.446 169.601 115.937 170.261 116.295 171.087C116.83 172.283 117.098 172.49 117.589 172.118C118.214 171.623 119.464 172.49 118.884 173.026C118.75 173.191 118.928 173.315 119.286 173.315C119.866 173.315 120.536 174.099 120.536 174.801C120.536 174.883 120.045 174.966 119.464 174.966C118.839 174.966 118.214 175.172 118.08 175.378C117.857 175.708 117.589 175.708 117.232 175.42C116.518 174.883 116.027 175.254 116.384 176.039C116.652 176.74 113.928 179.216 113.303 178.845C113.08 178.721 112.589 178.968 112.232 179.464C111.875 179.959 111.25 180.33 110.937 180.33C110.58 180.33 109.955 180.825 109.509 181.444C109.062 182.105 108.348 182.847 107.946 183.136C107.5 183.425 107.143 183.961 107.143 184.292C107.143 184.622 106.741 184.869 106.161 184.869C105.625 184.869 104.821 185.158 104.375 185.53C103.75 186.107 103.482 186.107 102.902 185.695C102.366 185.282 102.187 185.323 101.92 185.942C101.696 186.396 101.25 186.726 100.893 186.726C100.536 186.726 100.045 187.139 99.7767 187.634C99.5535 188.171 99.1517 188.583 98.9731 188.583C98.5713 188.583 97.0981 189.161 93.3035 190.812C92.1874 191.265 91.1606 191.637 90.982 191.554C90.7588 191.513 90.6249 191.637 90.6249 191.884C90.6249 192.256 87.991 194.938 87.4999 195.021C87.366 195.021 86.9642 195.186 86.607 195.309C86.2499 195.433 85.1338 195.64 84.1517 195.722C82.8124 195.805 82.366 196.052 82.4106 196.547C82.4553 197.084 81.9642 197.29 80.3124 197.497C78.4374 197.744 77.7231 198.116 75.4017 200.179C73.0356 202.283 72.4999 202.531 71.3838 202.325C70.6249 202.201 69.8213 202.325 69.4195 202.613C69.0178 202.902 68.0356 203.191 67.1874 203.274C66.116 203.356 65.2231 203.851 64.1963 204.842C63.0802 205.915 62.4552 206.245 61.741 206.08C60.4463 205.75 54.8213 207.565 53.7945 208.638C53.5713 208.927 52.7677 209.257 52.0088 209.381C48.4374 210.083 44.6427 211.486 44.8213 211.981C45.0892 212.6 44.3749 213.095 43.9731 212.517C43.482 211.816 39.4195 212.022 39.107 212.765C38.8392 213.384 38.7499 213.384 37.7231 212.765C36.3838 211.939 36.1606 211.939 36.1606 212.724C36.1606 213.054 35.7588 213.508 35.2677 213.755C34.0624 214.374 34.107 216.107 35.3124 216.437C36.0713 216.685 36.607 216.437 37.5892 215.447C38.8838 214.127 38.8838 214.127 40.2677 215.199C41.6517 216.272 42.0535 216.396 42.5892 215.942C42.7677 215.777 43.6606 215.612 44.6427 215.612C45.6695 215.571 46.7856 215.241 47.3213 214.787C47.9463 214.292 48.3927 214.168 48.7052 214.457C48.9731 214.704 49.9106 214.746 51.0267 214.58C52.0535 214.415 54.4195 214.044 56.2499 213.755C59.3302 213.301 61.0713 212.682 62.3213 211.486C62.6338 211.238 64.0177 210.784 65.4463 210.495C66.9195 210.206 68.482 209.835 68.9731 209.67C72.0088 208.514 73.6606 207.73 73.6606 207.442C73.6606 207.235 74.0178 207.194 74.5088 207.359C76.1606 207.813 82.5892 205.832 82.5892 204.801C82.5892 204.512 82.8124 204.264 83.1249 204.264C83.3928 204.264 83.9731 204.017 84.3303 203.686C84.732 203.356 86.0713 202.82 87.2767 202.407C88.5267 202.036 89.9553 201.458 90.491 201.128C91.0267 200.798 91.7856 200.55 92.0981 200.55C92.4553 200.55 93.2142 200.096 93.8392 199.519C95.1785 198.322 99.7767 196.011 100.893 196.011C101.339 196.011 102.589 195.268 103.616 194.36C104.687 193.453 105.848 192.71 106.25 192.71C106.652 192.71 107.634 192.256 108.482 191.678C109.33 191.1 110.223 190.647 110.536 190.647C110.803 190.647 111.295 190.358 111.607 190.028C111.92 189.697 112.634 189.409 113.214 189.409C114.062 189.409 114.375 189.12 114.598 188.171C114.866 186.933 117.277 185.282 118.839 185.282C119.598 185.282 122.321 183.012 122.321 182.435C122.321 182.187 122.723 181.981 123.214 181.981C123.705 181.981 124.107 182.228 124.107 182.558C124.107 182.889 124.464 183.425 124.911 183.714C125.982 184.415 125.893 187.015 124.777 188.171C123.705 189.243 123.259 197.001 123.884 203.645C124.062 205.213 124.107 207.194 124.062 207.978C124.018 208.762 124.018 210.702 124.062 212.311C124.107 213.879 124.152 217.51 124.152 220.358C124.152 223.164 124.33 225.763 124.553 226.135C124.732 226.465 125 227.785 125.134 229.023C125.402 231.582 126.071 233.439 127.098 234.47C127.455 234.883 127.678 235.461 127.545 235.832C127.366 236.162 127.455 236.451 127.723 236.451C127.991 236.451 128.125 236.699 127.991 236.988C127.857 237.276 128.303 238.267 129.018 239.175C129.687 240.083 130.357 241.362 130.536 241.981C130.937 243.425 133.482 244.539 134.732 243.838C135.759 243.219 135.982 238.927 135 238.927C134.643 238.927 134.375 238.597 134.33 238.184C134.152 235.172 133.839 233.356 133.482 232.944C133.259 232.696 133.08 231.623 133.125 230.55C133.17 229.519 132.991 228.239 132.723 227.703C131.786 225.928 131.295 224.072 131.741 224.072C132.232 224.072 132.053 219.615 131.518 218.79C131.339 218.501 131.205 216.933 131.25 215.282C131.295 213.673 131.295 212.105 131.295 211.898C131.295 211.651 131.295 209.917 131.295 207.978C131.339 206.039 131.384 201.871 131.428 198.693C131.473 194.36 131.652 192.669 132.143 191.884C132.5 191.307 132.812 190.812 132.857 190.729C132.902 190.688 133.259 190.729 133.661 190.894C134.062 191.018 134.241 191.307 134.107 191.513C133.973 191.719 134.598 192.545 135.446 193.37C136.339 194.237 137.053 195.144 137.053 195.433C137.053 195.722 137.678 196.341 138.437 196.836C139.152 197.332 139.687 197.868 139.553 197.992C139.375 198.116 139.598 198.569 140.045 198.982C140.803 199.766 141.786 201.21 142.232 202.201C142.366 202.531 143.571 203.604 144.911 204.594C146.25 205.585 147.321 206.616 147.321 206.905C147.321 207.194 147.812 207.854 148.393 208.349C148.973 208.886 149.598 209.794 149.777 210.371C149.955 210.99 150.402 211.816 150.803 212.228C152.812 214.25 154.286 215.406 154.777 215.406C155.089 215.406 155.536 215.736 155.759 216.149C155.982 216.561 157.053 217.18 158.125 217.469C160.58 218.171 161.384 218.748 160.67 219.161C160.134 219.45 167.5 226.547 168.348 226.547C168.884 226.547 170.803 228.322 170.67 228.693C170.58 228.9 170.848 229.023 171.205 229.023C171.562 229.023 171.875 229.395 171.875 229.849C171.875 230.715 174.196 232.325 175.446 232.325C176.25 232.366 178.125 233.728 178.125 234.347C178.125 234.594 178.705 235.048 179.42 235.378C180.134 235.75 180.803 236.286 180.937 236.616C181.071 236.946 182.053 237.73 183.036 238.308C184.062 238.886 185.759 240.206 186.786 241.238C187.812 242.228 188.884 243.054 189.107 243.054C189.33 243.054 189.866 243.384 190.268 243.755C191.92 245.323 192.723 245.942 193.214 245.942C193.482 245.942 193.973 246.437 194.286 247.098C194.598 247.717 195.625 248.542 196.562 248.955C197.455 249.367 198.214 249.904 198.214 250.11C198.214 250.316 198.571 250.481 199.062 250.481C199.509 250.481 200.223 250.935 200.625 251.513C201.027 252.091 201.83 252.627 202.455 252.792C203.08 252.916 203.571 253.205 203.571 253.411C203.571 253.618 204.062 254.03 204.687 254.278C205.312 254.525 205.803 254.979 205.803 255.268C205.803 255.557 206.205 256.011 206.696 256.259C207.187 256.506 208.839 257.703 210.357 258.982C211.83 260.22 213.928 261.582 214.911 261.995C215.937 262.407 217.277 263.315 217.902 263.975C218.527 264.677 219.553 265.378 220.134 265.543C220.714 265.708 222.187 266.781 223.348 267.854C224.509 268.968 226.027 270 226.696 270.124C227.366 270.289 228.527 270.825 229.33 271.362C230.134 271.939 231.384 272.476 232.143 272.6C232.902 272.765 233.795 273.219 234.107 273.673C234.777 274.58 238.348 275.942 242.009 276.685C245.759 277.469 255.803 276.272 255.803 275.034C255.803 273.59 254.643 273.054 252.545 273.508C250.045 274.127 247.009 274.127 246.652 273.59C246.518 273.343 245.893 273.177 245.268 273.177C244.687 273.177 244.196 273.054 244.196 272.847C244.196 272.682 243.348 272.517 242.277 272.435C241.161 272.393 240.134 272.063 239.732 271.609C239.375 271.197 237.678 270.248 235.937 269.464C234.241 268.721 232.232 267.483 231.562 266.699C230.848 265.956 229.911 265.337 229.464 265.337C229.062 265.337 228.437 265.048 228.125 264.718C227.812 264.388 227.321 264.099 227.009 264.099C226.741 264.099 226.116 263.728 225.67 263.274C225.223 262.82 224.643 262.448 224.33 262.448C224.018 262.448 223.437 262.077 222.991 261.623C222.545 261.169 222.009 260.798 221.786 260.798C221.562 260.798 220.625 260.096 219.732 259.23C217.366 257.084 216.027 256.259 214.955 256.259C214.464 256.259 213.125 255.433 212.053 254.402C210.982 253.37 209.777 252.545 209.375 252.545C209.018 252.503 207.902 251.554 206.92 250.399C205.937 249.243 204.553 248.047 203.795 247.717C201.384 246.644 200.223 245.983 198.661 244.704C197.812 244.044 196.83 243.466 196.518 243.466C196.205 243.466 195.714 242.971 195.446 242.352C194.777 240.908 192.857 238.927 192.143 238.927C191.875 238.927 191.295 238.473 190.893 237.895C190.491 237.318 189.687 236.781 189.062 236.616C188.437 236.492 187.946 236.121 187.946 235.832C187.946 235.502 187.232 235.048 186.339 234.801C184.509 234.223 183.214 233.274 179.018 229.354C177.411 227.785 175.937 226.547 175.759 226.547C175.58 226.547 174.687 225.846 173.75 224.938C172.857 224.072 171.205 222.792 170.089 222.173C168.973 221.513 167.857 220.688 167.589 220.358C165.759 218.129 165.178 217.717 164.018 217.675C162.991 217.675 162.768 217.51 162.857 216.85C162.902 216.272 162.232 215.571 160.491 214.415C158.884 213.301 157.857 212.228 157.366 211.197C157.009 210.33 156.518 209.629 156.339 209.629C156.116 209.629 155.67 209.175 155.357 208.597C155 208.019 153.795 206.575 152.589 205.378C151.428 204.182 150.446 203.026 150.446 202.82C150.402 202.572 149.643 201.829 148.661 201.169C146.607 199.725 142.857 194.856 142.857 193.659C142.857 192.462 140.67 189.615 138.839 188.501C137.991 187.964 137.232 187.139 137.143 186.685C137.098 186.231 136.428 185.653 135.714 185.323C134.955 185.034 134.509 184.622 134.643 184.415C134.777 184.168 134.687 183.755 134.375 183.466C134.107 183.136 134.018 182.393 134.196 181.816C134.42 180.949 134.33 180.784 133.795 180.99C133.214 181.197 133.214 181.032 133.839 179.752C134.241 178.927 134.732 178.267 134.911 178.267C135.491 178.267 135.312 177.111 134.643 176.74C132.366 175.461 133.571 172.49 136.652 171.871C137.321 171.706 138.125 171.334 138.437 171.004C138.75 170.633 139.866 169.807 140.937 169.147C142.009 168.446 142.857 167.703 142.857 167.497C142.857 167.249 143.259 166.506 143.795 165.846C144.286 165.186 144.464 164.649 144.196 164.649C143.928 164.649 143.795 164.484 143.928 164.278C144.107 164.072 144.732 164.03 145.402 164.195C146.83 164.567 148.928 163.7 149.33 162.627C149.464 162.215 151.071 161.224 152.902 160.358C154.732 159.491 156.25 158.624 156.25 158.418C156.25 158.253 156.83 157.799 157.589 157.428C158.303 157.056 159.598 156.107 160.357 155.282C161.161 154.498 162.678 153.466 163.705 153.054C164.732 152.641 166.384 151.527 167.411 150.578C169.464 148.638 171.071 147.73 172.5 147.73C173.795 147.73 175.312 146.699 176.116 145.213C176.518 144.553 177.187 144.017 177.634 144.017C178.125 144.017 178.571 143.893 178.661 143.686C178.795 143.398 181.696 142.036 184.375 141.087C185.223 140.798 186.384 140.014 186.964 139.395C187.545 138.776 188.125 138.281 188.303 138.322C190.402 138.9 194.018 134.691 192.634 133.287C192.232 132.875 191.562 131.926 191.161 131.183C190.67 130.316 189.643 129.45 188.303 128.831C187.098 128.253 186.161 127.593 186.161 127.304C186.161 127.056 185.67 126.602 185.089 126.355C184.509 126.107 183.75 125.365 183.437 124.663C183.125 124.003 182.366 123.301 181.83 123.177C181.25 123.054 177.857 120.248 174.196 116.905C170.268 113.274 166.786 110.468 165.536 109.89C164.375 109.354 163.303 108.528 163.17 108.116C163.036 107.703 162.232 106.795 161.428 106.135C160.58 105.475 159.241 103.989 158.393 102.792C157.455 101.554 155.759 100.028 154.152 98.9959C152.634 98.088 150.803 96.685 150.045 95.9422C149.286 95.1582 148.08 94.1678 147.411 93.7964C146.741 93.3838 145.848 92.641 145.402 92.1458C145 91.6506 144.018 91.1554 143.303 90.9904C142.545 90.8253 141.964 90.4539 141.964 90.1651C141.964 89.8762 141.25 89.216 140.402 88.7208C138.705 87.7717 138.571 87.0702 138.795 81.0867C138.795 79.9312 138.884 76.5475 138.884 73.5351C138.973 68.3356 139.018 68.0468 140.045 67.0977C141.161 66.066 140.937 63.5076 139.687 62.0633C139.464 61.8157 139.42 61.2792 139.553 60.9079C139.866 60.1238 138.973 58.2669 137.946 57.5241C137.411 57.1114 137.411 56.9051 137.902 56.4099C138.214 56.0385 138.348 55.5433 138.214 55.337C137.411 54.1403 137.455 48.7758 138.259 48.5282C139.018 48.2394 139.018 48.1981 138.259 47.7854C137.545 47.4553 137.455 47.0427 137.768 44.6905C138.036 42.2559 137.991 41.967 137.098 41.4306C136.027 40.729 135.848 39.6149 136.83 39.6149C138.214 39.6149 136.696 36.2311 135.268 36.1073C135.134 36.1073 134.866 35.9835 134.598 35.8597C134.375 35.7359 133.795 35.6947 133.393 35.7772ZM140.312 98.0055C141.295 98.7483 141.92 99.6149 141.741 99.8212C141.607 100.069 141.696 100.275 141.964 100.275C142.232 100.275 142.768 100.564 143.125 100.894C143.527 101.224 144.107 101.513 144.464 101.513C144.821 101.513 145.223 101.224 145.357 100.894C145.803 99.8625 147.321 100.151 147.812 101.389C148.08 102.05 148.795 103.04 149.464 103.618C150.134 104.237 151.562 105.64 152.678 106.795C154.33 108.487 155.045 108.941 156.562 109.147C157.634 109.271 158.482 109.56 158.482 109.725C158.482 109.931 159.018 110.303 159.732 110.55C161.027 111.045 162.946 113.439 162.946 114.553C162.946 114.924 163.348 115.296 163.839 115.42C164.33 115.543 164.732 115.832 164.732 116.08C164.732 116.823 166.161 118.019 167.053 118.019C167.5 118.019 167.857 118.267 167.857 118.514C167.857 118.803 168.571 119.505 169.42 120.041C170.268 120.578 170.982 121.238 170.982 121.527C170.982 121.816 171.652 122.311 172.455 122.6C173.214 122.889 175 124.168 176.384 125.447C177.768 126.685 179.598 128.253 180.491 128.955C181.384 129.615 182.053 130.399 181.92 130.688C181.83 130.935 182.053 131.389 182.411 131.678C182.768 131.967 182.991 132.421 182.857 132.751C182.723 133.04 182.812 133.287 183.036 133.287C184.062 133.287 183.348 134.113 181.607 134.938C180.536 135.433 179.42 136.217 179.107 136.63C178.795 137.043 178.08 137.414 177.545 137.414C177.009 137.414 176.071 137.785 175.446 138.239C174.821 138.693 173.973 139.065 173.571 139.065C173.125 139.065 172.768 139.271 172.768 139.519C172.768 139.725 172.009 140.22 171.116 140.591C170.178 140.922 168.348 142.036 167.053 143.067C165.759 144.099 163.616 145.42 162.366 145.997C161.071 146.575 159.375 147.565 158.571 148.226C157.768 148.845 156.875 149.381 156.562 149.381C156.25 149.381 155.446 150.124 154.777 151.032C154.062 151.939 153.259 152.682 152.902 152.682C151.741 152.682 148.527 154.539 148.08 155.488C147.812 156.066 147.053 156.561 146.339 156.685C145.625 156.809 144.509 157.428 143.839 158.047C143.17 158.666 142.187 159.285 141.741 159.45C141.25 159.574 140.625 160.11 140.402 160.605C140.089 161.265 139.598 161.513 138.928 161.472C138.214 161.389 137.5 161.884 136.295 163.411C134.643 165.351 132.232 166.424 132.857 164.856C132.991 164.525 132.902 163.618 132.589 162.834C132.187 161.637 132.232 161.224 132.812 160.399C133.259 159.739 133.393 159.12 133.125 158.501C132.902 157.964 133.036 156.19 133.393 154.209C133.839 151.816 133.884 150.454 133.571 149.587C133.036 148.102 133.303 142.861 133.973 142.118C134.553 141.458 134.598 139.354 134.018 137.084C133.75 136.011 133.75 135.227 134.018 135.103C134.241 134.979 134.241 134.649 133.973 134.36C133.661 133.989 133.705 133.576 134.196 132.957C134.687 132.256 134.777 131.596 134.42 129.697C134.196 128.294 134.196 126.933 134.42 126.355C134.687 125.777 134.643 125.076 134.375 124.622C134.062 124.085 134.107 123.755 134.598 123.384C135.089 123.012 135.134 122.682 134.821 122.146C134.33 121.321 134.598 120.248 135.58 119.175C136.027 118.68 136.205 117.318 136.25 114.223C136.25 111.912 136.428 109.766 136.607 109.56C136.92 109.188 137.678 101.018 137.589 99.0372C137.455 96.3962 138.08 96.1486 140.312 98.0055Z" stroke="#605555" stroke-width="4" mask="url(#path-3-outside-1_1274_29)"/>
</svg>
